<?xml version="1.0" encoding="UTF-8"?>
<!DOCTYPE svg PUBLIC "-//W3C//DTD SVG 1.1//EN" "http://www.w3.org/Graphics/SVG/1.1/DTD/svg11.dtd">
<svg xmlns="http://www.w3.org/2000/svg" version="1.1" width="365px" height="286px" style="shape-rendering:geometricPrecision; text-rendering:geometricPrecision; image-rendering:optimizeQuality; fill-rule:evenodd; clip-rule:evenodd" xmlns:xlink="http://www.w3.org/1999/xlink">
<g><path style="opacity:0.888" fill="#1a3472" d="M 70.5,48.5 C 79.9921,46.6536 88.1588,48.9869 95,55.5C 97.6474,51.652 101.147,49.3186 105.5,48.5C 103.812,58.2536 101.645,67.9202 99,77.5C 97.2458,79.25 95.0792,79.9167 92.5,79.5C 94.1382,55.9577 84.4716,49.4577 63.5,60C 53.4358,67.6157 47.6024,77.7823 46,90.5C 42.6136,108.774 50.1136,117.274 68.5,116C 79.1068,112.558 85.7735,105.391 88.5,94.5C 90.396,93.5344 92.396,93.2011 94.5,93.5C 90.3974,111.598 79.0641,121.598 60.5,123.5C 39.0816,121.035 29.9149,109.035 33,87.5C 37.9148,67.0871 50.4148,54.0871 70.5,48.5 Z"/></g>
<g><path style="opacity:0.861" fill="#1a3472" d="M 123.5,52.5 C 130.965,52.6228 132.965,55.9561 129.5,62.5C 126.226,65.8674 122.726,66.2007 119,63.5C 117.393,58.4383 118.893,54.7716 123.5,52.5 Z"/></g>
<g><path style="opacity:0.891" fill="#1a3472" d="M 163.5,74.5 C 167.206,74.9253 170.539,76.2587 173.5,78.5C 180.009,75.3858 182.843,77.3858 182,84.5C 179.516,93.767 177.35,103.1 175.5,112.5C 175.699,117.354 177.199,117.687 180,113.5C 181.145,110.568 181.978,107.568 182.5,104.5C 184.5,104.5 186.5,104.5 188.5,104.5C 188.354,112.306 185.021,118.14 178.5,122C 173.463,122.599 169.13,121.099 165.5,117.5C 157.607,123.987 149.774,123.987 142,117.5C 135.282,102.958 138.115,90.4578 150.5,80C 154.561,77.2655 158.894,75.4321 163.5,74.5 Z M 162.5,80.5 C 167.026,80.6916 169.692,83.025 170.5,87.5C 169.11,95.3962 166.943,103.063 164,110.5C 161.058,114.389 157.225,116.222 152.5,116C 150.344,114.397 149.01,112.23 148.5,109.5C 149.764,101.11 152.264,93.11 156,85.5C 157.965,83.4497 160.132,81.783 162.5,80.5 Z"/></g>
<g><path style="opacity:0.888" fill="#1a3472" d="M 202.5,74.5 C 207.692,74.676 211.525,77.0094 214,81.5C 220.984,75.0877 228.817,73.5877 237.5,77C 240.794,79.4777 242.46,82.811 242.5,87C 239.928,96.8792 237.261,106.713 234.5,116.5C 237.263,116.256 239.429,114.923 241,112.5C 242.312,110.045 243.478,107.545 244.5,105C 246.134,104.506 247.801,104.34 249.5,104.5C 248.875,114.126 243.875,120.126 234.5,122.5C 228.358,122.189 225.024,119.023 224.5,113C 226.659,105.854 228.826,98.6878 231,91.5C 233.79,82.6325 230.957,79.4659 222.5,82C 219,84.1667 216.167,87 214,90.5C 211.511,99.4571 209.177,108.457 207,117.5C 204.693,122.334 201.36,123.334 197,120.5C 198.363,109.035 200.697,97.702 204,86.5C 204.82,84.272 204.487,82.272 203,80.5C 199.719,83.6495 197.552,87.4829 196.5,92C 194.866,92.4935 193.199,92.6602 191.5,92.5C 191.543,87.4029 193.043,82.7362 196,78.5C 198.013,76.7518 200.18,75.4185 202.5,74.5 Z"/></g>
<g><path style="opacity:0.876" fill="#1a3472" d="M 112.5,75.5 C 120.834,73.1945 125.834,76.1945 127.5,84.5C 124.63,93.2761 121.464,101.943 118,110.5C 116.794,117.01 118.46,118.01 123,113.5C 124.442,110.95 125.608,108.284 126.5,105.5C 128.396,104.534 130.396,104.201 132.5,104.5C 131.749,114.351 126.582,120.351 117,122.5C 108.748,121.243 105.748,116.576 108,108.5C 111.306,100.055 114.472,91.5547 117.5,83C 116.851,80.0228 115.517,79.6894 113.5,82C 110.732,84.8686 108.732,88.2019 107.5,92C 105.421,92.8077 103.421,92.641 101.5,91.5C 102.881,84.4756 106.547,79.1422 112.5,75.5 Z"/></g>
<g><path style="opacity:0.895" fill="#1a3472" d="M 275.5,75.5 C 295.652,73.8174 303.486,82.8174 299,102.5C 291.049,119.732 278.216,125.232 260.5,119C 253.502,112.47 251.668,104.636 255,95.5C 259.08,85.9185 265.914,79.2519 275.5,75.5 Z M 280.5,80.5 C 284.213,80.7697 287.046,82.4364 289,85.5C 289.515,93.9226 287.849,101.923 284,109.5C 280.388,114.559 275.554,116.726 269.5,116C 267.333,115.167 265.833,113.667 265,111.5C 264.323,102.556 266.323,94.2224 271,86.5C 273.855,83.7731 277.022,81.7731 280.5,80.5 Z"/></g>
<g><path style="opacity:0.91" fill="#1a3472" d="M 165.5,145.5 C 177.117,143.937 181.284,148.604 178,159.5C 173.659,162.448 169.659,162.115 166,158.5C 164.949,163.474 164.115,168.474 163.5,173.5C 167.5,173.5 171.5,173.5 175.5,173.5C 175.739,175.467 175.406,177.301 174.5,179C 170.179,179.499 165.846,179.666 161.5,179.5C 159.515,195.073 156.349,210.407 152,225.5C 150.371,229.931 147.871,233.764 144.5,237C 139.312,239.349 134.478,238.849 130,235.5C 126.765,226.406 129.932,222.239 139.5,223C 140.893,224.171 141.727,225.671 142,227.5C 145.362,211.859 148.528,196.192 151.5,180.5C 147.893,179.511 144.226,179.177 140.5,179.5C 140.357,177.738 140.691,176.071 141.5,174.5C 145.167,173.833 148.833,173.167 152.5,172.5C 153.554,166.398 155.054,160.398 157,154.5C 159.025,150.644 161.858,147.644 165.5,145.5 Z"/></g>
<g><path style="opacity:0.923" fill="#1a3472" d="M 36.5,148.5 C 57.5,148.5 78.5,148.5 99.5,148.5C 98.936,157.217 97.936,165.884 96.5,174.5C 94.5,174.5 92.5,174.5 90.5,174.5C 91.0021,169.162 91.1688,163.828 91,158.5C 89.4423,156.232 87.2756,155.066 84.5,155C 81.1667,154.333 77.8333,154.333 74.5,155C 74,155.5 73.5,156 73,156.5C 68.6547,174.215 64.1547,191.882 59.5,209.5C 59.7093,210.086 60.0426,210.586 60.5,211C 64.8206,211.499 69.1539,211.666 73.5,211.5C 73.6427,213.262 73.3094,214.929 72.5,216.5C 58.8267,217.259 45.16,217.926 31.5,218.5C 31.2436,216.208 31.5769,214.041 32.5,212C 36.8333,211.667 41.1667,211.333 45.5,211C 46.5156,210.481 47.1822,209.647 47.5,208.5C 52.1524,190.558 56.4857,172.558 60.5,154.5C 54.1351,153.901 48.1351,155.068 42.5,158C 39.0707,162.693 36.5707,167.859 35,173.5C 33.3005,174.406 31.4672,174.739 29.5,174.5C 31.4213,165.734 33.7546,157.067 36.5,148.5 Z"/></g>
<g><path style="opacity:0.871" fill="#1a3472" d="M 111.5,172.5 C 116.959,172.103 122.292,172.603 127.5,174C 133.481,181.751 132.147,188.085 123.5,193C 116.626,194.826 109.626,195.992 102.5,196.5C 99.081,211.912 104.748,216.746 119.5,211C 122.479,208.938 125.313,206.771 128,204.5C 129.847,205.169 131.014,206.503 131.5,208.5C 123.165,217.999 112.832,221.166 100.5,218C 93.2946,214.264 89.9613,208.264 90.5,200C 90.9439,185.734 97.9439,176.567 111.5,172.5 Z M 115.5,177.5 C 119.758,177.124 122.758,178.791 124.5,182.5C 123.191,186.307 120.524,188.474 116.5,189C 112.49,189.501 108.49,190.001 104.5,190.5C 105.686,183.987 109.352,179.654 115.5,177.5 Z"/></g>
</svg>
